<?xml version="1.0" encoding="utf-8"?>
<!-- Generator: Adobe Illustrator 26.2.1, SVG Export Plug-In . SVG Version: 6.00 Build 0)  -->
<svg version="1.1" id="レイヤー_1" xmlns="http://www.w3.org/2000/svg" xmlns:xlink="http://www.w3.org/1999/xlink" x="0px"
	 y="0px" viewBox="0 0 141.7 141.7" style="enable-background:new 0 0 141.7 141.7;" xml:space="preserve">
<g>
	<g>
		<path d="M24.9,65.4c2.3,0,4.2,1.8,4.4,4.1H32c-0.1-3.7-3.3-6.7-7.1-6.7c-3.8,0-6.9,3-7.1,6.7h0v2.7C18,76,21.1,79,24.9,79
			c1.6,0,3.1-0.5,4.4-1.5V79H32v-6.7h0c0,0,0,0,0,0h-2.7c-0.1,2.3-2,4.1-4.4,4.1c-2.3,0-4.2-1.8-4.4-4.1h0v-2.7h0
			C20.7,67.2,22.6,65.4,24.9,65.4z"/>
		<path d="M48.3,62.8L48.3,62.8l-4.9,0v0h-2.7v9.5V79h2.7v-2.7h4.4v0c0,0,0,0,0,0h0.4v0c0.8-0.1,1.6-0.2,2.4-0.6l0.7,3.3l2.9,0
			l-1.2-5c1.1-1.2,1.8-2.7,1.8-4.5C54.8,65.9,51.9,63,48.3,62.8z M43.4,72.2v-6.8H48c2.3,0.1,4.1,1.9,4.2,4.1c-0.1,2.2-2,4-4.2,4.1
			h-4.6V72.2z"/>
		<polygon points="86.8,62.8 84.1,62.8 84.1,72.2 84.1,79 86.8,79 86.8,74.3 93.5,74.3 93.5,71.6 86.8,71.6 86.8,65.4 95.8,65.4 
			95.8,62.8 86.8,62.8 		"/>
		<polygon points="115.5,65.4 115.5,62.8 106.5,62.8 106.5,62.8 103.7,62.8 103.7,72.2 103.7,79 106.5,79 106.5,74.3 113.1,74.3 
			113.1,71.6 106.5,71.6 106.5,65.4 		"/>
		<polygon points="70.4,62.7 67.9,62.7 62,79 64.9,79 69.1,67.3 73.2,79 76.2,79 70.4,62.8 		"/>
	</g>
	<circle cx="122.3" cy="77.4" r="1.6"/>
</g>
</svg>
